<?xml version="1.0" standalone="no"?>
<!DOCTYPE svg PUBLIC "-//W3C//DTD SVG 20010904//EN"
 "http://www.w3.org/TR/2001/REC-SVG-20010904/DTD/svg10.dtd">
<svg version="1.0" xmlns="http://www.w3.org/2000/svg"
 width="160.000000pt" height="160.000000pt" viewBox="0 0 160.000000 160.000000"
 preserveAspectRatio="xMidYMid meet">
<metadata>
Created by potrace 1.14, written by Peter Selinger 2001-2017
</metadata>
<g transform="translate(0.000000,160.000000) scale(0.100000,-0.100000)"
fill="#000000" stroke="none">
<path d="M204 1343 c-97 -120 -184 -226 -192 -235 -14 -17 -12 -18 36 -18 l51
0 97 118 c53 64 101 116 106 114 5 -1 7 2 4 6 -3 5 4 18 17 28 21 19 21 19 7
0 -14 -18 -14 -18 7 -5 15 9 18 16 10 21 -8 5 -6 13 8 28 14 16 21 18 27 8 6
-9 7 -6 4 8 -4 14 1 27 16 42 l23 21 140 -262 c77 -143 152 -274 167 -290 23
-26 31 -29 65 -24 78 12 98 18 110 34 10 12 24 14 82 8 50 -5 68 -10 65 -20
-7 -16 41 -29 64 -16 9 5 19 9 22 9 12 -1 200 44 200 48 0 8 -202 -33 -245
-50 -8 -3 -15 -1 -15 4 0 5 17 12 38 16 20 3 69 14 107 24 39 10 88 21 110 25
22 4 35 9 29 12 -6 2 -69 -10 -140 -25 -71 -16 -131 -28 -133 -26 -8 7 8 16
41 25 l33 8 -32 -3 c-18 -1 -30 0 -27 3 8 8 96 30 119 30 l20 0 -20 -9 c-19
-8 -19 -9 4 -9 17 -1 22 3 17 14 -3 8 0 15 7 15 8 0 6 4 -3 10 -8 5 -12 10 -7
11 4 1 12 3 17 4 6 1 22 4 38 5 l27 2 -30 8 c-16 4 -25 8 -19 9 6 0 10 13 8
27 -4 36 -14 43 -14 11 0 -29 -34 -71 -53 -64 -7 2 -16 13 -22 25 -5 12 -16
22 -24 22 -11 0 -10 4 4 14 11 8 16 20 12 29 -3 9 -3 16 1 15 4 -1 15 2 25 6
9 5 25 5 35 0 9 -4 23 -6 30 -5 6 1 12 -5 12 -14 0 -9 4 -14 9 -11 8 5 36 -42
33 -56 -1 -5 6 -8 16 -8 14 0 15 -2 2 -10 -13 -8 -13 -10 2 -10 9 0 27 -17 40
-37 21 -34 23 -36 26 -15 3 18 10 22 42 22 l38 0 -112 168 -111 167 -51 3 -51
3 -47 89 c-26 50 -54 97 -62 105 -13 13 -65 15 -349 15 l-334 0 -177 -217z
m1051 -153 c3 -11 11 -20 16 -20 6 0 7 -5 3 -11 -4 -8 -9 -7 -15 2 -5 8 -22
13 -41 11 -27 -2 -30 -1 -15 8 9 6 22 8 27 5 6 -3 10 -2 10 4 0 5 -8 12 -17
14 -14 4 -13 5 4 6 14 1 24 -6 28 -19z m-75 -120 c0 -5 -10 -10 -22 -9 -22 0
-22 1 -3 9 11 5 21 9 23 9 1 1 2 -3 2 -9z m0 -30 c-34 -11 -50 -12 -50 -2 0 4
17 8 38 9 32 1 34 0 12 -7z m1 -26 c-36 -7 -67 -11 -69 -9 -9 9 49 23 98 23
25 0 17 -4 -29 -14z"/>
<path d="M422 1293 c0 -24 4 -43 8 -43 14 0 17 50 4 67 -11 16 -13 13 -12 -24z"/>
<path d="M396 1311 c-4 -7 -5 -15 -2 -18 9 -9 19 4 14 18 -4 11 -6 11 -12 0z"/>
<path d="M284 1278 l-29 -33 33 29 c17 17 32 31 32 33 0 8 -8 1 -36 -29z"/>
<path d="M390 1271 c0 -6 5 -13 10 -16 6 -3 10 1 10 9 0 9 -4 16 -10 16 -5 0
-10 -4 -10 -9z"/>
<path d="M392 1234 c10 -10 20 -16 22 -13 3 3 -5 11 -17 18 -21 13 -21 12 -5
-5z"/>
<path d="M245 1230 c-4 -6 -10 -8 -15 -5 -5 3 -11 1 -14 -4 -8 -13 22 -7 36 7
7 7 9 12 6 12 -4 0 -10 -5 -13 -10z"/>
<path d="M250 1136 c0 -9 -16 -16 -42 -20 -24 -3 -48 -7 -55 -8 -7 -1 -10 -5
-7 -10 3 -4 -20 -38 -50 -75 l-55 -68 27 -7 c30 -9 39 -3 89 63 20 27 40 49
43 49 3 0 23 -33 44 -72 22 -40 45 -80 52 -88 16 -19 15 -32 -5 -47 -10 -8
-12 -12 -3 -13 27 0 10 -20 -18 -20 -30 0 -42 22 -19 36 8 5 7 9 -4 15 -9 6
-13 17 -10 29 4 15 0 20 -16 21 -33 2 -39 4 -47 12 -19 19 -21 3 -4 -36 11
-24 17 -52 14 -64 -4 -15 0 -22 18 -27 21 -6 22 -7 5 -17 -16 -10 -124 -164
-138 -199 -8 -19 1 -36 10 -21 4 6 8 -28 10 -76 2 -92 11 -130 11 -50 0 35 4
47 15 47 8 0 15 -5 15 -11 0 -6 5 -9 11 -7 8 3 11 36 10 101 -1 63 2 97 8 97
7 0 11 -28 11 -71 0 -44 4 -68 10 -64 5 3 10 31 10 61 0 37 4 53 11 49 6 -4 8
-13 5 -21 -3 -7 -1 -16 4 -19 6 -4 10 24 10 69 0 50 4 76 13 79 10 4 10 6 0 6
-30 2 -9 19 29 24 31 4 45 2 53 -10 7 -9 17 -13 22 -10 13 8 23 57 12 57 -5 0
-9 14 -9 31 0 17 -4 28 -10 24 -5 -3 -10 -1 -10 5 0 6 8 10 17 8 11 -2 28 -28
44 -66 14 -35 29 -63 33 -62 3 1 12 0 19 -3 6 -2 -1 -4 -17 -4 -16 0 -33 -7
-37 -14 -5 -8 -37 -57 -73 -109 -51 -76 -61 -97 -51 -106 15 -12 24 -202 11
-241 -9 -28 4 -29 83 -8 31 8 77 17 104 20 38 5 47 10 47 26 0 10 1 19 3 19 9
-1 103 -32 162 -55 45 -17 81 -24 100 -21 17 3 48 8 70 12 49 7 78 22 70 35
-9 13 1 12 89 -15 44 -14 83 -23 86 -21 4 2 47 9 96 15 54 7 96 17 106 27 10
9 21 13 25 10 3 -4 0 -7 -7 -7 -7 0 -11 -2 -8 -5 8 -9 38 6 32 16 -3 5 5 8 18
6 14 -1 23 3 23 12 0 8 7 16 15 18 13 4 13 3 0 -6 -13 -9 -13 -11 1 -11 8 0
25 9 36 19 12 11 23 18 26 15 3 -3 6 51 6 120 1 68 -2 127 -7 130 -12 7 -364
-130 -374 -147 -4 -6 -8 -47 -8 -90 0 -55 -3 -76 -11 -71 -8 4 -9 0 -4 -15 8
-25 3 -26 -38 -7 -18 8 -45 18 -62 23 -30 10 -30 11 -30 79 0 87 3 104 24 105
9 0 3 5 -13 10 -29 8 -162 -14 -177 -30 -7 -6 -21 -147 -20 -190 1 -17 -3 -22
-15 -17 -9 3 -17 6 -20 6 -2 0 1 11 6 25 6 16 6 25 0 25 -6 0 -10 -9 -10 -21
0 -18 -4 -20 -32 -14 -18 4 -37 11 -43 15 -5 4 -23 10 -38 14 -15 4 -25 11
-22 16 3 5 0 12 -6 16 -8 4 -9 3 -5 -4 5 -8 0 -12 -13 -12 -29 0 -27 30 2 31
l22 0 -23 10 c-22 8 -23 13 -20 90 l3 81 -30 -6 c-16 -3 -40 -8 -52 -12 -23
-6 -23 -5 -23 94 l0 100 40 4 c22 2 40 0 40 -4 0 -5 5 -8 10 -8 16 0 12 77 -4
83 -15 6 -26 -1 -26 -15 0 -5 5 -6 10 -3 6 3 10 1 10 -4 0 -6 -16 -11 -35 -11
-37 0 -60 25 -45 50 5 8 6 19 2 24 -3 6 -9 0 -13 -14 -6 -22 -7 -23 -8 -4 -1
12 -8 27 -16 34 -25 21 -17 30 28 30 57 0 117 11 117 21 0 4 -25 51 -56 103
l-56 96 -48 0 c-31 0 -52 5 -61 16 -12 14 -14 14 -20 -3 -7 -16 -8 -16 -8 0
-1 20 -21 24 -21 3z m-40 -443 c0 -47 -24 -38 -28 10 -3 30 0 36 12 31 10 -4
16 -19 16 -41z m181 23 c-8 -10 -9 -16 -1 -21 6 -4 10 -50 10 -116 0 -86 -3
-109 -14 -109 -11 0 -14 24 -15 116 -2 105 6 144 26 144 3 0 0 -6 -6 -14z
m-31 -51 c0 -8 -4 -15 -10 -15 -5 0 -7 7 -4 15 4 8 8 15 10 15 2 0 4 -7 4 -15z
m-2 -96 c4 -78 -6 -169 -19 -169 -5 0 -9 53 -9 121 0 92 3 120 13 117 7 -3 13
-29 15 -69z m-47 13 c-14 -5 -15 -32 -1 -32 11 0 13 -102 4 -174 -12 -86 -24
-47 -24 79 0 83 4 132 13 145 11 19 12 19 16 3 2 -9 -2 -19 -8 -21z m-181 -33
c0 -36 -4 -49 -12 -46 -7 2 -12 17 -12 33 1 16 2 37 3 47 1 9 6 17 11 17 6 0
10 -23 10 -51z m317 -245 c-3 -3 -12 -4 -19 -1 -8 3 -5 6 6 6 11 1 17 -2 13
-5z"/>
<path d="M1210 1121 c-8 -17 -8 -21 4 -21 8 0 17 6 19 13 3 7 6 5 6 -5 1 -10
-6 -18 -14 -18 -16 0 -20 -15 -7 -24 16 -10 33 12 30 39 -4 35 -23 43 -38 16z"/>
<path d="M522 1107 c-5 -7 -9 -30 -8 -51 1 -34 5 -41 29 -47 29 -8 46 8 32 31
-10 15 -23 12 -27 -7 -3 -16 -4 -15 -9 2 -3 11 -2 31 2 45 7 24 7 24 8 3 1
-13 7 -23 16 -23 16 0 17 5 6 34 -9 22 -36 29 -49 13z"/>
<path d="M1276 1031 c-6 -10 43 -25 52 -16 3 3 -2 5 -12 5 -9 0 -14 5 -11 10
3 6 -1 10 -9 10 -8 0 -17 -4 -20 -9z"/>
<path d="M1348 1023 c7 -3 16 -2 19 1 4 3 -2 6 -13 5 -11 0 -14 -3 -6 -6z"/>
<path d="M1268 1003 c7 -3 16 -2 19 1 4 3 -2 6 -13 5 -11 0 -14 -3 -6 -6z"/>
<path d="M1178 983 c7 -3 16 -2 19 1 4 3 -2 6 -13 5 -11 0 -14 -3 -6 -6z"/>
<path d="M1390 960 c0 -5 5 -10 11 -10 5 0 7 5 4 10 -3 6 -8 10 -11 10 -2 0
-4 -4 -4 -10z"/>
<path d="M123 954 c3 -6 2 -16 -3 -24 -5 -9 -5 -19 2 -27 7 -9 7 -17 0 -26
-13 -16 -4 -57 12 -57 6 0 16 11 22 24 9 20 9 26 -3 30 -9 4 -12 13 -8 26 4
11 2 20 -4 20 -6 0 -8 6 -5 14 3 8 0 17 -7 22 -7 4 -10 3 -6 -2z"/>
<path d="M1295 940 c-11 -5 -15 -9 -10 -10 19 -2 -29 -30 -49 -29 -17 0 -15 3
9 14 35 17 10 20 -31 5 -15 -6 -41 -13 -58 -16 -17 -2 -45 -9 -61 -14 -24 -7
-19 -8 27 -5 32 2 62 6 67 9 5 4 17 -1 25 -10 12 -11 16 -35 16 -90 0 -58 4
-79 17 -92 16 -16 16 -16 9 3 -12 32 -12 37 3 43 8 3 11 0 7 -6 -4 -7 -2 -21
4 -32 11 -20 3 -26 -24 -21 -5 1 -25 -5 -46 -13 -55 -22 -63 -11 -62 83 0 45
3 90 7 100 5 17 2 18 -30 11 -48 -11 -60 -24 -15 -17 l35 6 -32 -15 c-18 -8
-33 -17 -33 -20 0 -3 15 -3 33 0 l32 6 -33 -13 c-18 -7 -30 -15 -27 -19 4 -4
19 -2 34 3 19 8 23 7 15 -1 -6 -6 -21 -12 -33 -13 -11 -1 -21 -5 -21 -10 0 -5
11 -7 25 -5 14 3 25 1 25 -3 0 -5 -12 -9 -26 -9 -15 0 -23 -4 -19 -10 4 -6 16
-8 28 -6 14 4 11 0 -8 -10 l-30 -15 27 4 c15 2 29 -1 32 -8 5 -15 -12 -35 -33
-36 -9 -1 -2 -5 14 -9 23 -6 25 -8 8 -9 -12 0 -25 -6 -29 -12 -4 -8 4 -9 27
-5 l34 6 -40 -19 c-48 -23 -33 -27 20 -5 20 8 42 13 48 11 6 -2 -5 -9 -24 -16
-68 -26 -82 -32 -77 -36 2 -2 40 9 84 25 43 17 86 30 94 29 8 0 -21 -13 -65
-30 -44 -16 -86 -31 -94 -34 -8 -3 -12 -8 -9 -10 6 -6 258 84 273 97 5 5 -5 3
-23 -3 -23 -8 -37 -8 -44 -1 -7 7 -21 6 -44 -4 -46 -19 -67 -17 -24 3 60 27
151 52 168 46 12 -3 13 -2 5 4 -8 6 -9 14 -3 23 17 27 11 28 -36 4 -67 -34
-74 -27 -74 70 0 92 16 129 53 124 20 -3 22 -10 25 -85 4 -105 22 -109 22 -5
-1 103 -22 129 -85 102z m-25 -50 c0 -5 -8 -10 -17 -10 -15 0 -16 2 -3 10 19
12 20 12 20 0z m-5 -50 c-3 -5 -12 -10 -18 -10 -7 0 -6 4 3 10 19 12 23 12 15
0z m1 -50 c1 -16 -3 -30 -8 -30 -5 0 -6 5 -3 10 3 6 2 10 -4 10 -5 0 -8 8 -6
18 5 23 4 22 13 22 4 0 8 -13 8 -30z m19 -140 c3 -5 -1 -10 -10 -10 -9 0 -13
5 -10 10 3 6 8 10 10 10 2 0 7 -4 10 -10z"/>
<path d="M1377 939 c7 -7 15 -10 18 -7 3 3 -2 9 -12 12 -14 6 -15 5 -6 -5z"/>
<path d="M835 898 c-64 -13 -105 -30 -58 -25 18 2 30 0 27 -5 -3 -4 -14 -8
-24 -8 -21 0 -34 -29 -24 -54 3 -9 12 -16 20 -16 20 0 17 18 -3 23 -14 4 -12
5 5 6 12 0 22 7 22 15 0 21 23 36 40 26 10 -6 16 -36 20 -101 4 -71 9 -93 20
-96 10 -3 11 -2 4 4 -17 12 -18 164 -2 175 10 6 9 8 -2 8 -8 0 -21 10 -29 21
-11 19 -11 21 2 16 9 -3 21 1 27 9 7 8 11 13 9 13 -2 -1 -26 -6 -54 -11z"/>
<path d="M1308 894 c-5 -4 -8 -27 -8 -52 0 -36 3 -43 16 -38 9 3 20 6 25 6 5
0 9 20 9 45 0 25 -5 45 -11 45 -6 0 -10 -12 -9 -27 4 -50 -3 -59 -9 -15 -3 24
-9 40 -13 36z"/>
<path d="M1189 843 l-1 -28 -7 25 c-7 24 -8 24 -18 5 -12 -22 -12 -141 0 -137
4 1 11 2 17 2 5 0 6 9 2 21 -9 24 -4 79 7 79 4 0 6 -20 5 -45 -2 -33 1 -45 11
-45 11 0 13 15 11 68 -4 84 -4 82 -16 82 -5 0 -10 -12 -11 -27z"/>
<path d="M586 851 c-9 -14 -5 -141 5 -147 5 -3 9 31 9 75 0 78 -3 91 -14 72z"/>
<path d="M610 832 c0 -17 6 -32 15 -36 11 -4 15 1 15 18 0 13 -7 29 -15 36
-13 11 -15 8 -15 -18z"/>
<path d="M817 833 c-13 -13 -7 -53 8 -53 10 0 15 10 15 30 0 29 -9 38 -23 23z"/>
<path d="M967 834 c-4 -4 -7 -18 -7 -31 0 -17 6 -23 21 -23 16 0 19 4 14 23
-9 28 -19 39 -28 31z"/>
<path d="M420 815 c0 -9 6 -12 15 -9 8 4 12 10 9 15 -8 14 -24 10 -24 -6z"/>
<path d="M1318 793 c-19 -5 -25 -43 -8 -43 6 0 10 4 10 10 0 5 7 7 15 4 10 -4
15 0 15 15 0 21 -2 22 -32 14z"/>
<path d="M610 771 c0 -12 6 -21 16 -21 9 0 14 7 12 17 -5 25 -28 28 -28 4z"/>
<path d="M768 773 c18 -7 15 -23 -5 -24 -16 0 -16 -1 1 -8 18 -7 18 -8 3 -14
-11 -4 -17 -18 -17 -37 0 -24 4 -30 23 -31 16 -1 18 -2 5 -6 -10 -2 -18 -9
-18 -14 0 -5 8 -9 18 -10 13 0 12 -2 -5 -9 -32 -13 -29 -17 10 -14 17 2 23 1
12 -2 -41 -12 -41 -26 0 -18 47 8 80 23 55 24 -9 1 -5 5 8 11 33 13 17 32 -20
24 -39 -9 -48 4 -48 78 0 48 -3 57 -17 56 -11 0 -13 -3 -5 -6z m12 -93 c0 -5
-4 -10 -10 -10 -5 0 -10 5 -10 10 0 6 5 10 10 10 6 0 10 -4 10 -10z"/>
<path d="M810 749 c0 -14 5 -19 17 -17 24 4 26 38 2 38 -13 0 -19 -7 -19 -21z"/>
<path d="M960 751 c0 -15 6 -21 21 -21 14 0 19 5 17 17 -5 26 -38 29 -38 4z"/>
<path d="M610 720 c0 -11 7 -20 15 -20 8 0 15 9 15 20 0 11 -7 20 -15 20 -8 0
-15 -9 -15 -20z"/>
<path d="M810 699 c0 -14 5 -19 17 -17 26 5 29 38 4 38 -15 0 -21 -6 -21 -21z"/>
<path d="M960 701 c0 -15 6 -21 21 -21 14 0 19 5 17 17 -5 26 -38 29 -38 4z"/>
<path d="M1077 699 c8 -8 16 -8 30 0 16 9 14 10 -11 11 -22 0 -27 -3 -19 -11z"/>
<path d="M1300 670 c0 -5 7 -7 15 -4 8 4 15 8 15 10 0 2 -7 4 -15 4 -8 0 -15
-4 -15 -10z"/>
<path d="M571 666 c2 -2 15 -9 29 -15 24 -11 24 -11 6 3 -16 13 -49 24 -35 12z"/>
<path d="M1365 640 c3 -5 8 -10 11 -10 2 0 4 5 4 10 0 6 -5 10 -11 10 -5 0 -7
-4 -4 -10z"/>
<path d="M648 633 c7 -3 16 -2 19 1 4 3 -2 6 -13 5 -11 0 -14 -3 -6 -6z"/>
<path d="M1193 587 c-62 -23 -113 -48 -113 -54 0 -7 5 -13 11 -13 5 0 7 5 3
12 -5 8 -2 9 10 5 11 -5 15 -3 10 5 -5 7 1 9 19 6 17 -3 24 -1 20 5 -4 6 0 8
11 4 10 -4 15 -3 11 3 -3 6 5 10 19 10 14 0 27 4 31 10 3 5 13 6 22 3 12 -5
14 -3 8 6 -6 10 -2 11 16 6 20 -5 21 -4 9 5 -12 10 -11 11 8 7 12 -3 20 -1 17
3 -3 5 1 11 7 13 7 3 9 6 3 6 -5 0 -61 -19 -122 -42z"/>
<path d="M821 579 c-25 -5 -49 -14 -55 -20 -13 -14 43 -3 89 16 35 15 27 16
-34 4z"/>
<path d="M870 561 c0 -6 4 -12 8 -15 5 -3 9 1 9 9 0 8 -4 15 -9 15 -4 0 -8 -4
-8 -9z"/>
<path d="M795 544 l-40 -13 49 4 c51 4 65 10 44 17 -7 2 -31 -1 -53 -8z"/>
<path d="M540 546 c0 -3 18 -10 40 -16 22 -6 40 -15 40 -19 0 -5 7 -12 16 -15
8 -3 12 -2 9 4 -3 6 0 10 7 11 7 0 -3 6 -22 13 -47 17 -90 27 -90 22z"/>
<path d="M672 505 c4 -5 3 -14 -3 -21 -8 -9 -4 -16 13 -25 19 -9 21 -9 11 2
-20 21 -15 32 13 26 14 -2 22 -1 17 3 -11 10 -60 24 -51 15z"/>
<path d="M968 503 c7 -3 16 -2 19 1 4 3 -2 6 -13 5 -11 0 -14 -3 -6 -6z"/>
<path d="M1020 487 c27 -15 36 -14 25 2 -3 6 -16 11 -28 11 -21 0 -21 -1 3
-13z"/>
<path d="M575 480 c-3 -5 -1 -10 4 -10 6 0 11 5 11 10 0 6 -2 10 -4 10 -3 0
-8 -4 -11 -10z"/>
<path d="M940 481 c0 -5 5 -13 10 -16 6 -3 10 -2 10 4 0 5 -4 13 -10 16 -5 3
-10 2 -10 -4z"/>
<path d="M993 470 c4 -18 37 -27 37 -10 0 6 -5 8 -11 4 -6 -3 -16 0 -21 7 -8
12 -9 11 -5 -1z"/>
<path d="M661 433 c7 -12 15 -20 18 -17 3 2 -3 12 -13 22 -17 16 -18 16 -5 -5z"/>
<path d="M607 423 c-10 -9 -9 -33 1 -33 4 0 8 9 8 20 0 23 0 22 -9 13z"/>
<path d="M1035 400 c3 -5 8 -10 11 -10 2 0 4 5 4 10 0 6 -5 10 -11 10 -5 0 -7
-4 -4 -10z"/>
</g>
</svg>
